<svg xmlns="http://www.w3.org/2000/svg" xmlns:xlink="http://www.w3.org/1999/xlink" width="500" zoomAndPan="magnify" viewBox="0 0 375 374.999991" height="500" preserveAspectRatio="xMidYMid meet" version="1.0"><defs><clipPath id="a1fcc137a5"><path d="M 0 266 L 374.996094 266 L 374.996094 361.578125 L 0 361.578125 Z M 0 266 " clip-rule="nonzero"/></clipPath></defs><path fill="#675c53" d="M 202.875 224.332031 L 171.832031 224.332031 L 179.683594 170.574219 C 174.558594 167.84375 171.066406 162.433594 171.066406 156.210938 C 171.066406 147.210938 178.367188 139.910156 187.34375 139.910156 C 196.339844 139.910156 203.640625 147.210938 203.640625 156.210938 C 203.640625 162.433594 200.148438 167.84375 195.023438 170.574219 Z M 151.078125 73.277344 C 151.078125 53.195312 167.402344 36.847656 187.507812 36.847656 C 207.589844 36.847656 223.9375 53.195312 223.9375 73.277344 L 223.9375 115.042969 L 151.078125 115.042969 Z M 255.152344 115.042969 L 247.636719 115.042969 L 247.636719 73.277344 C 247.636719 40.125 220.660156 13.148438 187.507812 13.148438 C 154.359375 13.148438 127.382812 40.125 127.382812 73.277344 L 127.382812 115.042969 L 119.84375 115.042969 C 111.824219 115.042969 105.316406 121.554688 105.316406 129.570312 L 105.316406 232.015625 C 105.316406 240.035156 111.824219 246.542969 119.84375 246.542969 L 255.152344 246.542969 C 263.191406 246.542969 269.703125 240.035156 269.703125 232.015625 L 269.703125 129.570312 C 269.703125 121.554688 263.191406 115.042969 255.152344 115.042969 " fill-opacity="1" fill-rule="nonzero"/><g clip-path="url(#a1fcc137a5)"><path fill="#675c53" d="M 363.839844 339.988281 C 363.839844 345.730469 359.148438 350.421875 353.40625 350.421875 L 21.613281 350.421875 C 15.84375 350.421875 11.152344 345.730469 11.152344 339.988281 L 11.152344 288.40625 C 11.152344 282.636719 15.84375 277.945312 21.613281 277.945312 L 353.40625 277.945312 C 359.148438 277.945312 363.839844 282.636719 363.839844 288.40625 Z M 353.40625 266.792969 L 21.613281 266.792969 C 9.667969 266.792969 0 276.460938 0 288.40625 L 0 339.988281 C 0 351.90625 9.667969 361.578125 21.613281 361.578125 L 353.40625 361.578125 C 365.324219 361.578125 374.996094 351.90625 374.996094 339.988281 L 374.996094 288.40625 C 374.996094 276.460938 365.324219 266.792969 353.40625 266.792969 " fill-opacity="1" fill-rule="nonzero"/></g><path fill="#675c53" d="M 99.617188 302.648438 L 96.050781 296.710938 C 94.976562 294.917969 92.484375 294.558594 90.691406 295.515625 L 82.363281 300.277344 L 82.363281 291.949219 C 82.363281 289.554688 80.566406 287.761719 78.195312 287.761719 L 71.636719 287.761719 C 69.269531 287.761719 67.472656 289.554688 67.472656 291.949219 L 67.472656 300.277344 L 59.144531 295.515625 C 57.347656 294.558594 54.859375 294.917969 53.78125 296.710938 L 50.214844 302.648438 C 49.019531 304.5625 49.617188 306.933594 51.414062 308.007812 L 59.742188 312.773438 L 51.414062 317.535156 C 49.617188 318.613281 49.140625 321.101562 50.214844 322.898438 L 53.78125 328.855469 C 54.980469 330.628906 57.347656 331.105469 59.144531 330.03125 L 67.472656 325.265625 L 67.472656 333.621094 C 67.472656 335.988281 69.269531 337.785156 71.636719 337.785156 L 78.195312 337.785156 C 80.566406 337.785156 82.363281 335.988281 82.363281 333.621094 L 82.363281 325.265625 L 90.691406 330.03125 C 92.484375 331.105469 94.855469 330.628906 96.050781 328.855469 L 99.617188 322.898438 C 100.695312 321.101562 100.21875 318.613281 98.445312 317.535156 L 90.09375 312.773438 L 98.445312 308.007812 C 100.21875 306.933594 100.816406 304.5625 99.617188 302.648438 " fill-opacity="1" fill-rule="nonzero"/><path fill="#675c53" d="M 170.707031 302.648438 L 167.140625 296.710938 C 166.0625 294.917969 163.574219 294.558594 161.777344 295.515625 L 153.449219 300.277344 L 153.449219 291.949219 C 153.449219 289.554688 151.65625 287.761719 149.285156 287.761719 L 142.726562 287.761719 C 140.355469 287.761719 138.5625 289.554688 138.5625 291.949219 L 138.5625 300.277344 L 130.230469 295.515625 C 128.4375 294.558594 125.949219 294.917969 124.871094 296.710938 L 121.304688 302.648438 C 120.109375 304.5625 120.707031 306.933594 122.5 308.007812 L 130.832031 312.773438 L 122.5 317.535156 C 120.707031 318.613281 120.226562 321.101562 121.304688 322.898438 L 124.871094 328.855469 C 126.066406 330.628906 128.4375 331.105469 130.230469 330.03125 L 138.5625 325.265625 L 138.5625 333.621094 C 138.5625 335.988281 140.355469 337.785156 142.726562 337.785156 L 149.285156 337.785156 C 151.65625 337.785156 153.449219 335.988281 153.449219 333.621094 L 153.449219 325.265625 L 161.777344 330.03125 C 163.574219 331.105469 165.945312 330.628906 167.140625 328.855469 L 170.707031 322.898438 C 171.785156 321.101562 171.304688 318.613281 169.535156 317.535156 L 161.179688 312.773438 L 169.535156 308.007812 C 171.304688 306.933594 171.902344 304.5625 170.707031 302.648438 " fill-opacity="1" fill-rule="nonzero"/><path fill="#675c53" d="M 241.796875 302.648438 L 238.230469 296.710938 C 237.152344 294.917969 234.664062 294.558594 232.867188 295.515625 L 224.539062 300.277344 L 224.539062 291.949219 C 224.539062 289.554688 222.742188 287.761719 220.371094 287.761719 L 213.816406 287.761719 C 211.445312 287.761719 209.648438 289.554688 209.648438 291.949219 L 209.648438 300.277344 L 201.320312 295.515625 C 199.523438 294.558594 197.035156 294.917969 195.957031 296.710938 L 192.390625 302.648438 C 191.195312 304.5625 191.792969 306.933594 193.566406 308.007812 L 201.917969 312.773438 L 193.566406 317.535156 C 191.792969 318.613281 191.316406 321.101562 192.390625 322.898438 L 195.957031 328.855469 C 197.15625 330.628906 199.523438 331.105469 201.320312 330.03125 L 209.648438 325.265625 L 209.648438 333.621094 C 209.648438 335.988281 211.445312 337.785156 213.816406 337.785156 L 220.371094 337.785156 C 222.742188 337.785156 224.539062 335.988281 224.539062 333.621094 L 224.539062 325.265625 L 232.867188 330.03125 C 234.664062 331.105469 237.03125 330.628906 238.230469 328.855469 L 241.796875 322.898438 C 242.871094 321.101562 242.394531 318.613281 240.597656 317.535156 L 232.269531 312.773438 L 240.597656 308.007812 C 242.394531 306.933594 242.992188 304.5625 241.796875 302.648438 " fill-opacity="1" fill-rule="nonzero"/><path fill="#675c53" d="M 318.292969 331.921875 C 318.292969 333.789062 316.902344 335.175781 315.039062 335.175781 L 271.257812 335.175781 C 269.390625 335.175781 268.003906 333.789062 268.003906 331.921875 L 268.003906 323.542969 C 268.003906 321.675781 269.390625 320.289062 271.257812 320.289062 L 315.039062 320.289062 C 316.902344 320.289062 318.292969 321.675781 318.292969 323.542969 L 318.292969 331.921875 " fill-opacity="1" fill-rule="nonzero"/></svg>