<svg xmlns="http://www.w3.org/2000/svg" xmlns:xlink="http://www.w3.org/1999/xlink" width="500" zoomAndPan="magnify" viewBox="0 0 375 374.999991" height="500" preserveAspectRatio="xMidYMid meet" version="1.0"><defs><clipPath id="4f6e1b9163"><path d="M 0 2.34375 L 375 2.34375 L 375 372 L 0 372 Z M 0 2.34375 " clip-rule="nonzero"/></clipPath></defs><g clip-path="url(#4f6e1b9163)"><path fill="#675c53" d="M 1.8125 15.03125 C 0.636719 17.359375 0 19.96875 0 22.65625 L 0 313.226562 C 0 324.214844 7.023438 333.957031 17.441406 337.4375 C 40.117188 344.988281 90.296875 361.714844 116.574219 370.480469 C 123.0625 372.640625 130.1875 371.550781 135.730469 367.554688 C 141.277344 363.558594 144.558594 357.136719 144.558594 350.308594 L 144.558594 333.992188 L 284.863281 333.992188 C 296.605469 333.992188 306.121094 324.476562 306.121094 312.734375 L 306.121094 252.054688 L 311.53125 252.054688 C 313.785156 252.054688 315.953125 251.160156 317.542969 249.5625 L 371.65625 195.445312 C 374.984375 192.128906 374.984375 186.738281 371.65625 183.421875 L 317.542969 129.308594 C 315.953125 127.707031 313.785156 126.816406 311.53125 126.816406 L 306.121094 126.816406 L 306.121094 23.617188 C 306.121094 11.875 296.605469 2.359375 284.863281 2.359375 C 241.316406 2.359375 64.804688 2.359375 21.257812 2.359375 C 12.578125 2.359375 5.109375 7.5625 1.8125 15.03125 Z M 60.902344 19.367188 L 130.023438 42.402344 C 138.699219 45.300781 144.558594 53.421875 144.558594 62.570312 L 144.558594 316.984375 L 284.863281 316.984375 C 287.210938 316.984375 289.117188 315.082031 289.117188 312.734375 L 289.117188 252.054688 L 263.425781 252.054688 C 259.992188 252.054688 256.886719 249.980469 255.570312 246.808594 C 254.261719 243.625 254.984375 239.96875 257.414062 237.539062 C 257.414062 237.539062 280.007812 214.945312 280.007812 214.945312 C 280.007812 214.945312 178.570312 214.945312 178.570312 214.945312 C 169.175781 214.945312 161.5625 207.335938 161.5625 197.9375 L 161.5625 180.929688 C 161.5625 171.535156 169.175781 163.925781 178.570312 163.925781 L 280.007812 163.925781 L 257.414062 141.332031 C 254.984375 138.898438 254.261719 135.242188 255.570312 132.0625 C 256.886719 128.890625 259.992188 126.816406 263.425781 126.816406 L 289.117188 126.816406 L 289.117188 23.617188 C 289.117188 21.269531 287.210938 19.367188 284.863281 19.367188 Z M 60.902344 19.367188 " fill-opacity="1" fill-rule="evenodd"/></g></svg>