<svg xmlns="http://www.w3.org/2000/svg" xmlns:xlink="http://www.w3.org/1999/xlink" width="500" zoomAndPan="magnify" viewBox="0 0 375 374.999991" height="500" preserveAspectRatio="xMidYMid meet" version="1.0"><defs><clipPath id="cf8f8fb8b1"><path d="M 16.171875 1 L 358.921875 1 L 358.921875 373 L 16.171875 373 Z M 16.171875 1 " clip-rule="nonzero"/></clipPath></defs><g clip-path="url(#cf8f8fb8b1)"><path fill="#675c53" d="M 317.65625 158.527344 L 317.65625 112.96875 C 317.65625 112.710938 317.59375 112.515625 317.59375 112.320312 C 317.398438 110.902344 316.882812 109.613281 315.910156 108.515625 L 216.730469 3.652344 C 215.699219 2.554688 214.34375 1.976562 212.917969 1.78125 C 212.660156 1.71875 212.402344 1.652344 212.015625 1.652344 L 64.441406 1.652344 C 60.890625 1.652344 57.988281 4.554688 57.988281 8.105469 L 57.988281 158.527344 C 34.5625 161.363281 16.367188 181.304688 16.367188 205.503906 L 16.367188 285.003906 C 16.367188 309.203125 34.5625 329.144531 57.988281 331.984375 L 57.988281 366.25 C 57.988281 369.796875 60.890625 372.703125 64.441406 372.703125 L 311.203125 372.703125 C 314.753906 372.703125 317.65625 369.796875 317.65625 366.25 L 317.65625 331.984375 C 341.082031 329.144531 359.28125 309.203125 359.28125 285.003906 L 359.28125 205.503906 C 359.28125 181.304688 341.082031 161.363281 317.65625 158.527344 Z M 304.75 359.796875 L 70.894531 359.796875 L 70.894531 332.371094 L 304.75 332.371094 Z M 107.933594 268.164062 C 110.765625 271.582031 114.386719 273.195312 118.96875 273.195312 C 122.324219 273.195312 125.097656 272.164062 127.488281 270.035156 C 129.9375 267.96875 131.675781 264.484375 132.773438 259.773438 C 132.90625 259.324219 133.164062 258.933594 133.546875 258.675781 C 133.941406 258.484375 134.386719 258.417969 134.835938 258.546875 L 148.386719 262.871094 C 149.226562 263.128906 149.679688 264.03125 149.484375 264.871094 C 147.292969 272.746094 143.621094 278.679688 138.519531 282.554688 C 133.421875 286.425781 126.898438 288.359375 119.089844 288.359375 C 109.484375 288.359375 101.480469 285.070312 95.285156 278.421875 C 89.089844 271.90625 85.929688 262.808594 85.929688 251.578125 C 85.929688 239.640625 89.089844 230.21875 95.285156 223.574219 C 101.546875 216.859375 109.871094 213.503906 120 213.503906 C 128.84375 213.503906 136.132812 216.152344 141.746094 221.441406 C 145.105469 224.605469 147.613281 229.121094 149.296875 234.929688 C 149.363281 235.382812 149.363281 235.832031 149.105469 236.21875 C 148.910156 236.609375 148.523438 236.867188 148.070312 236.929688 L 134.261719 240.285156 C 133.8125 240.351562 133.351562 240.285156 133.035156 240.09375 C 132.648438 239.835938 132.390625 239.445312 132.261719 239.058594 C 131.558594 235.832031 130.066406 233.316406 127.75 231.445312 C 125.429688 229.574219 122.652344 228.671875 119.292969 228.671875 C 114.585938 228.671875 110.902344 230.285156 108 233.640625 C 105.03125 237.058594 103.609375 242.671875 103.609375 250.546875 C 103.609375 258.871094 105.03125 264.808594 107.933594 268.164062 Z M 151.363281 285.003906 L 178.34375 215.699219 C 178.601562 215.117188 179.183594 214.667969 179.886719 214.667969 L 194.664062 214.667969 C 195.316406 214.667969 195.890625 215.054688 196.148438 215.699219 L 223.703125 284.554688 C 223.960938 284.8125 224.09375 285.199219 224.09375 285.585938 C 224.09375 286.488281 223.386719 287.199219 222.480469 287.199219 L 207.183594 287.199219 C 206.535156 287.199219 205.890625 286.8125 205.699219 286.167969 L 200.019531 271.453125 L 174.53125 271.453125 L 169.238281 286.167969 C 168.980469 286.746094 168.398438 287.199219 167.6875 287.199219 L 152.847656 287.199219 C 152.332031 287.199219 151.816406 286.941406 151.554688 286.488281 C 151.234375 286.039062 151.167969 285.523438 151.363281 285.003906 Z M 228.152344 285.585938 L 228.152344 216.28125 C 228.152344 215.378906 228.863281 214.667969 229.765625 214.667969 L 255.320312 214.667969 C 261.324219 214.667969 265.773438 215.117188 269 216.085938 C 273.324219 217.378906 277.066406 219.636719 280.160156 222.863281 C 283.199219 226.089844 285.515625 230.089844 287.128906 234.734375 C 288.675781 239.253906 289.453125 244.996094 289.453125 251.578125 C 289.453125 257.449219 288.742188 262.613281 287.257812 266.871094 C 285.449219 272.164062 282.804688 276.488281 279.449219 279.777344 C 276.804688 282.296875 273.320312 284.230469 268.929688 285.652344 C 265.703125 286.683594 261.378906 287.199219 256.089844 287.199219 L 229.765625 287.199219 C 228.863281 287.199219 228.152344 286.488281 228.152344 285.585938 Z M 304.75 158.140625 L 70.894531 158.140625 L 70.894531 14.558594 L 205.570312 14.558594 L 205.570312 112.96875 C 205.570312 116.515625 208.472656 119.421875 212.023438 119.421875 L 304.75 119.421875 Z M 304.75 158.140625 " fill-opacity="1" fill-rule="nonzero"/></g><path fill="#675c53" d="M 187.113281 237.125 L 180.015625 256.546875 L 194.339844 256.546875 Z M 187.113281 237.125 " fill-opacity="1" fill-rule="nonzero"/><path fill="#675c53" d="M 262.289062 271.710938 C 264.292969 271.195312 265.90625 270.355469 267.195312 269.195312 C 268.484375 268.035156 269.582031 266.035156 270.421875 263.195312 C 271.332031 260.289062 271.777344 256.160156 271.777344 250.996094 C 271.777344 245.835938 271.332031 241.835938 270.421875 239.1875 C 269.582031 236.542969 268.421875 234.542969 266.871094 233.121094 C 265.453125 231.703125 263.515625 230.734375 261.195312 230.285156 C 259.324219 229.832031 255.578125 229.636719 250.03125 229.636719 L 245.382812 229.636719 L 245.382812 272.292969 L 254.222656 272.292969 C 257.96875 272.292969 260.675781 272.097656 262.289062 271.710938 Z M 262.289062 271.710938 " fill-opacity="1" fill-rule="nonzero"/></svg>