<svg xmlns="http://www.w3.org/2000/svg" xmlns:xlink="http://www.w3.org/1999/xlink" width="500" zoomAndPan="magnify" viewBox="0 0 375 374.999991" height="500" preserveAspectRatio="xMidYMid meet" version="1.0"><defs><clipPath id="9f57486005"><path d="M 35.289062 0 L 339.789062 0 L 339.789062 187 L 35.289062 187 Z M 35.289062 0 " clip-rule="nonzero"/></clipPath><clipPath id="ea04bd434c"><path d="M 73 266 L 112 266 L 112 304.5 L 73 304.5 Z M 73 266 " clip-rule="nonzero"/></clipPath><clipPath id="5dcbb5fb4c"><path d="M 238 266 L 277 266 L 277 304.5 L 238 304.5 Z M 238 266 " clip-rule="nonzero"/></clipPath><clipPath id="ad01532194"><path d="M 140.199219 321.507812 L 234.699219 321.507812 L 234.699219 374.757812 L 140.199219 374.757812 Z M 140.199219 321.507812 " clip-rule="nonzero"/></clipPath></defs><g clip-path="url(#9f57486005)"><path fill="#675c53" d="M 285.257812 186.519531 L 89.742188 186.519531 C 59.71875 186.519531 35.289062 162.089844 35.289062 132.066406 C 35.289062 115.242188 42.976562 99.582031 56.0625 89.285156 C 55.089844 85.46875 54.597656 81.542969 54.597656 77.558594 C 54.597656 51.425781 75.859375 30.167969 101.988281 30.167969 C 105.78125 30.167969 109.539062 30.621094 113.203125 31.511719 C 130.429688 11.433594 155.199219 0 181.820312 0 C 204.765625 0 226.644531 8.601562 243.429688 24.226562 C 258.679688 38.414062 268.46875 57.195312 271.371094 77.613281 L 285.257812 77.613281 C 315.28125 77.613281 339.707031 102.039062 339.707031 132.066406 C 339.707031 162.089844 315.28125 186.519531 285.257812 186.519531 Z M 101.988281 42.851562 C 82.851562 42.851562 67.28125 58.421875 67.28125 77.558594 C 67.28125 81.691406 68 85.730469 69.421875 89.574219 C 70.445312 92.347656 69.414062 95.460938 66.9375 97.078125 C 55.066406 104.839844 47.976562 117.917969 47.976562 132.066406 C 47.976562 155.097656 66.710938 173.835938 89.742188 173.835938 L 285.257812 173.835938 C 308.289062 173.835938 327.023438 155.097656 327.023438 132.066406 C 327.023438 109.035156 308.289062 90.296875 285.257812 90.296875 L 265.6875 90.296875 C 262.371094 90.296875 259.617188 87.746094 259.363281 84.4375 C 256.289062 44.203125 222.226562 12.683594 181.820312 12.683594 C 157.683594 12.683594 135.3125 23.617188 120.449219 42.679688 C 118.78125 44.820312 115.933594 45.660156 113.367188 44.773438 C 109.699219 43.5 105.871094 42.851562 101.988281 42.851562 Z M 101.988281 42.851562 " fill-opacity="1" fill-rule="nonzero"/></g><path fill="#675c53" d="M 124.078125 291.734375 L 105.054688 291.734375 C 101.550781 291.734375 98.710938 288.894531 98.710938 285.390625 C 98.710938 281.890625 101.550781 279.050781 105.054688 279.050781 L 117.738281 279.050781 L 117.738281 180.175781 C 117.738281 176.675781 120.578125 173.835938 124.078125 173.835938 C 127.582031 173.835938 130.421875 176.675781 130.421875 180.175781 L 130.421875 285.390625 C 130.421875 288.894531 127.582031 291.734375 124.078125 291.734375 Z M 124.078125 291.734375 " fill-opacity="1" fill-rule="nonzero"/><g clip-path="url(#ea04bd434c)"><path fill="#675c53" d="M 92.371094 304.417969 C 81.878906 304.417969 73.34375 295.882812 73.34375 285.390625 C 73.34375 274.902344 81.878906 266.367188 92.371094 266.367188 C 102.859375 266.367188 111.394531 274.902344 111.394531 285.390625 C 111.394531 295.882812 102.859375 304.417969 92.371094 304.417969 Z M 92.371094 279.050781 C 88.871094 279.050781 86.027344 281.894531 86.027344 285.390625 C 86.027344 288.890625 88.871094 291.734375 92.371094 291.734375 C 95.867188 291.734375 98.710938 288.890625 98.710938 285.390625 C 98.710938 281.894531 95.867188 279.050781 92.371094 279.050781 Z M 92.371094 279.050781 " fill-opacity="1" fill-rule="nonzero"/></g><path fill="#675c53" d="M 60.660156 266.367188 C 50.167969 266.367188 41.632812 257.832031 41.632812 247.339844 C 41.632812 236.847656 50.167969 228.3125 60.660156 228.3125 C 71.148438 228.3125 79.683594 236.847656 79.683594 247.339844 C 79.683594 257.832031 71.148438 266.367188 60.660156 266.367188 Z M 60.660156 240.996094 C 57.160156 240.996094 54.316406 243.84375 54.316406 247.339844 C 54.316406 250.835938 57.160156 253.679688 60.660156 253.679688 C 64.15625 253.679688 67 250.835938 67 247.339844 C 67 243.84375 64.15625 240.996094 60.660156 240.996094 Z M 60.660156 240.996094 " fill-opacity="1" fill-rule="nonzero"/><path fill="#675c53" d="M 244.578125 291.734375 L 212.867188 291.734375 C 209.367188 291.734375 206.527344 288.894531 206.527344 285.390625 L 206.527344 180.175781 C 206.527344 176.675781 209.367188 173.835938 212.867188 173.835938 C 216.371094 173.835938 219.210938 176.675781 219.210938 180.175781 L 219.210938 279.050781 L 244.578125 279.050781 C 248.082031 279.050781 250.921875 281.890625 250.921875 285.390625 C 250.921875 288.894531 248.082031 291.734375 244.578125 291.734375 Z M 244.578125 291.734375 " fill-opacity="1" fill-rule="nonzero"/><g clip-path="url(#5dcbb5fb4c)"><path fill="#675c53" d="M 257.261719 304.417969 C 246.769531 304.417969 238.234375 295.882812 238.234375 285.390625 C 238.234375 274.902344 246.769531 266.367188 257.261719 266.367188 C 267.753906 266.367188 276.289062 274.902344 276.289062 285.390625 C 276.289062 295.882812 267.753906 304.417969 257.261719 304.417969 Z M 257.261719 279.050781 C 253.765625 279.050781 250.921875 281.894531 250.921875 285.390625 C 250.921875 288.890625 253.765625 291.734375 257.261719 291.734375 C 260.757812 291.734375 263.605469 288.890625 263.605469 285.390625 C 263.605469 281.894531 260.757812 279.050781 257.261719 279.050781 Z M 257.261719 279.050781 " fill-opacity="1" fill-rule="nonzero"/></g><path fill="#675c53" d="M 301.65625 253.679688 C 291.164062 253.679688 282.628906 245.148438 282.628906 234.65625 C 282.628906 224.164062 291.164062 215.628906 301.65625 215.628906 C 312.148438 215.628906 320.683594 224.164062 320.683594 234.65625 C 320.683594 245.148438 312.148438 253.679688 301.65625 253.679688 Z M 301.65625 228.3125 C 298.160156 228.3125 295.316406 231.160156 295.316406 234.65625 C 295.316406 238.152344 298.160156 240.996094 301.65625 240.996094 C 305.152344 240.996094 308 238.152344 308 234.65625 C 308 231.160156 305.152344 228.3125 301.65625 228.3125 Z M 301.65625 228.3125 " fill-opacity="1" fill-rule="nonzero"/><path fill="#675c53" d="M 288.972656 240.996094 L 174.816406 240.996094 C 171.3125 240.996094 168.472656 238.15625 168.472656 234.65625 L 168.472656 180.175781 C 168.472656 176.675781 171.3125 173.835938 174.816406 173.835938 C 178.320312 173.835938 181.15625 176.675781 181.15625 180.175781 L 181.15625 228.3125 L 288.972656 228.3125 C 292.472656 228.3125 295.316406 231.152344 295.316406 234.65625 C 295.316406 238.15625 292.472656 240.996094 288.972656 240.996094 Z M 288.972656 240.996094 " fill-opacity="1" fill-rule="nonzero"/><path fill="#675c53" d="M 149.449219 253.679688 L 73.34375 253.679688 C 69.839844 253.679688 67 250.839844 67 247.339844 C 67 243.835938 69.839844 240.996094 73.34375 240.996094 L 143.105469 240.996094 L 143.105469 180.175781 C 143.105469 176.675781 145.945312 173.835938 149.449219 173.835938 C 152.949219 173.835938 155.789062 176.675781 155.789062 180.175781 L 155.789062 247.339844 C 155.789062 250.839844 152.949219 253.679688 149.449219 253.679688 Z M 149.449219 253.679688 " fill-opacity="1" fill-rule="nonzero"/><g clip-path="url(#ad01532194)"><path fill="#675c53" d="M 187.339844 321.734375 C 169.296875 321.734375 152.691406 329.960938 141.785156 344.300781 C 140.082031 346.53125 140.082031 349.652344 141.78125 351.882812 C 152.691406 366.222656 169.296875 374.449219 187.339844 374.449219 C 205.382812 374.449219 221.988281 366.222656 232.894531 351.886719 C 234.597656 349.652344 234.597656 346.535156 232.898438 344.300781 C 221.988281 329.960938 205.382812 321.734375 187.339844 321.734375 Z M 227.925781 348.101562 C 218.207031 360.878906 203.414062 368.203125 187.339844 368.203125 C 171.265625 368.203125 156.472656 360.878906 146.75 348.082031 C 156.472656 335.308594 171.265625 327.980469 187.339844 327.980469 C 203.414062 327.980469 218.207031 335.308594 227.925781 348.082031 C 227.925781 348.085938 227.925781 348.101562 227.925781 348.101562 Z M 227.925781 348.101562 " fill-opacity="1" fill-rule="nonzero"/></g><path fill="#675c53" d="M 187.339844 329.816406 C 177.261719 329.816406 169.0625 338.015625 169.0625 348.09375 C 169.0625 358.167969 177.261719 366.367188 187.339844 366.367188 C 197.417969 366.367188 205.613281 358.167969 205.613281 348.09375 C 205.613281 338.015625 197.417969 329.816406 187.339844 329.816406 Z M 187.339844 360.125 C 180.707031 360.125 175.308594 354.726562 175.308594 348.09375 C 175.308594 341.457031 180.707031 336.058594 187.339844 336.058594 C 193.972656 336.058594 199.371094 341.457031 199.371094 348.09375 C 199.371094 354.726562 193.972656 360.125 187.339844 360.125 Z M 187.339844 360.125 " fill-opacity="1" fill-rule="nonzero"/></svg>