<svg xmlns="http://www.w3.org/2000/svg" xmlns:xlink="http://www.w3.org/1999/xlink" width="500" zoomAndPan="magnify" viewBox="0 0 375 374.999991" height="500" preserveAspectRatio="xMidYMid meet" version="1.0"><path fill="#675c53" d="M 317.15625 80.382812 C 313.816406 80.382812 311.109375 77.671875 311.109375 74.332031 L 311.109375 29.308594 C 311.109375 25.425781 307.949219 22.269531 304.066406 22.269531 L 254.8125 22.269531 C 251.476562 22.269531 248.765625 19.558594 248.765625 16.21875 C 248.765625 12.878906 251.476562 10.171875 254.8125 10.171875 L 304.066406 10.171875 C 314.621094 10.171875 323.207031 18.753906 323.207031 29.308594 L 323.207031 74.332031 C 323.207031 77.671875 320.496094 80.382812 317.15625 80.382812 Z M 317.15625 80.382812 " fill-opacity="1" fill-rule="nonzero"/><path fill="#675c53" d="M 317.125 79.917969 C 317.125 79.917969 317.125 79.917969 317.117188 79.917969 C 315.519531 79.917969 313.976562 79.277344 312.839844 78.136719 L 292.941406 58.179688 C 290.585938 55.816406 290.585938 51.988281 292.957031 49.628906 C 295.324219 47.273438 299.152344 47.273438 301.507812 49.644531 L 317.132812 65.308594 L 332.8125 49.636719 C 335.183594 47.265625 339.011719 47.28125 341.367188 49.636719 C 343.730469 51.996094 343.730469 55.824219 341.367188 58.1875 L 321.402344 78.144531 C 320.269531 79.277344 318.730469 79.917969 317.125 79.917969 Z M 317.125 79.917969 " fill-opacity="1" fill-rule="nonzero"/><path fill="#675c53" d="M 119.378906 364.828125 L 70.125 364.828125 C 59.574219 364.828125 50.980469 356.246094 50.980469 345.691406 L 50.980469 300.660156 C 50.980469 297.320312 53.691406 294.609375 57.027344 294.609375 C 60.367188 294.609375 63.078125 297.320312 63.078125 300.660156 L 63.078125 345.691406 C 63.078125 349.574219 66.234375 352.730469 70.125 352.730469 L 119.378906 352.730469 C 122.71875 352.730469 125.425781 355.441406 125.425781 358.78125 C 125.425781 362.121094 122.71875 364.828125 119.378906 364.828125 Z M 119.378906 364.828125 " fill-opacity="1" fill-rule="nonzero"/><path fill="#675c53" d="M 37.105469 327.136719 C 35.550781 327.136719 34.007812 326.546875 32.828125 325.363281 C 30.464844 323.003906 30.464844 319.175781 32.828125 316.8125 L 52.785156 296.847656 C 53.917969 295.714844 55.453125 295.074219 57.058594 295.074219 C 57.058594 295.074219 57.058594 295.074219 57.066406 295.074219 C 58.667969 295.074219 60.210938 295.714844 61.34375 296.855469 L 81.246094 316.820312 C 83.601562 319.183594 83.601562 323.011719 81.230469 325.371094 C 78.859375 327.726562 75.03125 327.726562 72.675781 325.355469 L 57.050781 309.683594 L 41.378906 325.363281 C 40.199219 326.546875 38.65625 327.136719 37.105469 327.136719 Z M 37.105469 327.136719 " fill-opacity="1" fill-rule="nonzero"/><path fill="#675c53" d="M 374.578125 315.558594 L 374.578125 137.011719 C 374.578125 131.230469 369.65625 126.53125 363.605469 126.53125 L 230.9375 126.53125 L 230.9375 205.355469 C 230.9375 218.421875 220.105469 229.046875 206.789062 229.046875 L 169.332031 229.046875 L 169.332031 315.558594 C 169.332031 321.339844 174.253906 326.039062 180.304688 326.039062 L 252.074219 326.039062 C 253.246094 326.039062 254.398438 326.386719 255.382812 327.023438 L 322.238281 370.734375 C 323.550781 371.589844 324.820312 371.054688 325.292969 370.8125 C 325.8125 370.527344 326.671875 369.875 326.671875 368.621094 L 326.671875 332.089844 C 326.671875 328.75 329.378906 326.039062 332.71875 326.039062 L 363.605469 326.039062 C 369.65625 326.039062 374.578125 321.339844 374.578125 315.558594 Z M 320.226562 282.023438 C 320.226562 285.363281 317.519531 288.070312 314.179688 288.070312 C 310.839844 288.070312 308.132812 285.363281 308.132812 282.023438 L 308.132812 239.226562 L 250.460938 239.226562 L 250.460938 282.023438 C 250.460938 285.363281 247.75 288.070312 244.410156 288.070312 C 241.070312 288.070312 238.363281 285.363281 238.363281 282.023438 L 238.363281 208.363281 C 238.363281 185.792969 256.726562 167.425781 279.300781 167.425781 C 301.871094 167.425781 320.226562 185.792969 320.226562 208.363281 Z M 320.226562 282.023438 " fill-opacity="1" fill-rule="nonzero"/><path fill="#675c53" d="M 52.257812 264.523438 C 52.816406 264.824219 54.296875 265.429688 55.902344 264.382812 L 127.027344 217.933594 C 128.011719 217.285156 129.160156 216.949219 130.335938 216.949219 L 163.207031 216.949219 C 163.234375 216.949219 163.257812 216.933594 163.285156 216.933594 C 163.3125 216.933594 163.335938 216.949219 163.363281 216.949219 L 206.789062 216.949219 C 213.4375 216.949219 218.839844 211.75 218.839844 205.355469 L 218.839844 15.390625 C 218.839844 8.996094 213.4375 3.796875 206.789062 3.796875 L 11.664062 3.796875 C 5.019531 3.796875 -0.382812 8.996094 -0.382812 15.390625 L -0.382812 205.355469 C -0.382812 211.75 5.019531 216.949219 11.664062 216.949219 L 44.53125 216.949219 C 47.871094 216.949219 50.578125 219.65625 50.578125 222.996094 L 50.578125 261.808594 C 50.578125 263.382812 51.625 264.183594 52.257812 264.523438 Z M 19.792969 116.386719 C 19.792969 67.070312 59.910156 26.953125 109.226562 26.953125 C 158.542969 26.953125 198.660156 67.070312 198.660156 116.386719 C 198.660156 165.703125 158.542969 205.828125 109.226562 205.828125 C 59.910156 205.828125 19.792969 165.703125 19.792969 116.386719 Z M 19.792969 116.386719 " fill-opacity="1" fill-rule="nonzero"/><path fill="#675c53" d="M 186.566406 116.386719 C 186.566406 73.738281 151.875 39.046875 109.226562 39.046875 C 66.582031 39.046875 31.890625 73.738281 31.890625 116.386719 C 31.890625 159.03125 66.582031 193.730469 109.226562 193.730469 C 151.875 193.730469 186.566406 159.03125 186.566406 116.386719 Z M 69.425781 147.550781 C 69.425781 144.210938 72.132812 141.5 75.472656 141.5 C 82.578125 141.5 89.355469 140.179688 95.59375 137.851562 C 87.910156 129.992188 83.152344 119.261719 83.152344 107.429688 C 83.152344 104.09375 85.859375 101.382812 89.199219 101.382812 C 92.539062 101.382812 95.25 104.09375 95.25 107.429688 C 95.25 117.371094 99.972656 126.140625 107.191406 131.910156 C 119.558594 123.613281 128.144531 110.636719 129.988281 95.71875 L 71.644531 95.71875 C 68.304688 95.71875 65.597656 93.011719 65.597656 89.671875 C 65.597656 86.332031 68.304688 83.625 71.644531 83.625 L 103.503906 83.625 L 103.503906 72.953125 C 103.503906 69.613281 106.210938 66.902344 109.550781 66.902344 C 112.890625 66.902344 115.597656 69.613281 115.597656 72.953125 L 115.597656 83.625 L 147.449219 83.625 C 150.785156 83.625 153.496094 86.332031 153.496094 89.671875 C 153.496094 93.011719 150.785156 95.71875 147.449219 95.71875 L 142.171875 95.71875 C 140.507812 112.53125 131.976562 127.433594 119.304688 137.917969 C 121.695312 138.5 124.152344 138.894531 126.71875 138.894531 C 130.058594 138.894531 132.769531 141.601562 132.769531 144.941406 C 132.769531 148.28125 130.058594 150.992188 126.71875 150.992188 C 119.546875 150.992188 112.792969 149.21875 106.820312 146.136719 C 97.457031 150.882812 86.792969 153.597656 75.472656 153.597656 C 72.132812 153.597656 69.425781 150.886719 69.425781 147.550781 Z M 69.425781 147.550781 " fill-opacity="1" fill-rule="nonzero"/><path fill="#675c53" d="M 279.300781 179.523438 C 263.398438 179.523438 250.460938 192.464844 250.460938 208.363281 L 250.460938 227.132812 L 308.132812 227.132812 L 308.132812 208.363281 C 308.132812 192.464844 295.199219 179.523438 279.300781 179.523438 Z M 279.300781 179.523438 " fill-opacity="1" fill-rule="nonzero"/></svg>